<svg xmlns="http://www.w3.org/2000/svg" width="163.281" height="34.938" viewBox="0 0 163.281 34.938">
  <metadata><?xpacket begin="﻿" id="W5M0MpCehiHzreSzNTczkc9d"?>
<x:xmpmeta xmlns:x="adobe:ns:meta/" x:xmptk="Adobe XMP Core 5.6-c138 79.159824, 2016/09/14-01:09:01        ">
   <rdf:RDF xmlns:rdf="http://www.w3.org/1999/02/22-rdf-syntax-ns#">
      <rdf:Description rdf:about=""/>
   </rdf:RDF>
</x:xmpmeta>
                                                                                                    
                                                                                                    
                                                                                                    
                                                                                                    
                                                                                                    
                                                                                                    
                                                                                                    
                                                                                                    
                                                                                                    
                                                                                                    
                                                                                                    
                                                                                                    
                                                                                                    
                                                                                                    
                                                                                                    
                                                                                                    
                                                                                                    
                                                                                                    
                                                                                                    
                                                                                                    
                           
<?xpacket end="w"?></metadata>
<defs>
    <style>
      .cls-1 {
        fill-rule: evenodd;
      }
    </style>
  </defs>
  <path id="logo" class="cls-1" d="M213.112,21.912H199.58v33.6h13.532c9.327,0,16.431-7.3,16.431-16.8S222.439,21.912,213.112,21.912Zm0,26.207h-5.8V29.3h5.8c5.316,0,8.988,3.648,8.988,9.408S218.428,48.119,213.112,48.119Zm29,0V42.167H254.19v-7.3H242.108V29.3H255.4V21.912H234.376v33.6H255.64V48.119H242.108Zm26.484,7.392h9.859l11.019-33.6h-8.458l-7.49,24.719-7.491-24.719h-8.457Zm24.261-33.6v33.6h7.732v-33.6h-7.732Zm30.156,34.271a16.782,16.782,0,0,0,14.5-7.776l-6.67-3.84a8.7,8.7,0,0,1-7.829,4.128c-5.992,0-9.858-3.984-9.858-9.984s3.866-9.984,9.858-9.984a8.759,8.759,0,0,1,7.829,4.128l6.67-3.84a16.9,16.9,0,0,0-14.5-7.776c-10.2,0-17.591,7.584-17.591,17.472S312.812,56.183,323.009,56.183Zm26.34-8.064V42.167h12.082v-7.3H349.349V29.3h13.29V21.912H341.616v33.6H362.88V48.119H349.349Z" transform="translate(-199.594 -21.25)"/>
</svg>
