<svg xmlns="http://www.w3.org/2000/svg" width="162.187" height="34.93" viewBox="0 0 162.187 34.93">
  <metadata><?xpacket begin="﻿" id="W5M0MpCehiHzreSzNTczkc9d"?>
<x:xmpmeta xmlns:x="adobe:ns:meta/" x:xmptk="Adobe XMP Core 5.6-c138 79.159824, 2016/09/14-01:09:01        ">
   <rdf:RDF xmlns:rdf="http://www.w3.org/1999/02/22-rdf-syntax-ns#">
      <rdf:Description rdf:about=""/>
   </rdf:RDF>
</x:xmpmeta>
                                                                                                    
                                                                                                    
                                                                                                    
                                                                                                    
                                                                                                    
                                                                                                    
                                                                                                    
                                                                                                    
                                                                                                    
                                                                                                    
                                                                                                    
                                                                                                    
                                                                                                    
                                                                                                    
                                                                                                    
                                                                                                    
                                                                                                    
                                                                                                    
                                                                                                    
                                                                                                    
                           
<?xpacket end="w"?></metadata>
<defs>
    <style>
      .cls-1 {
        fill: #ffc600;
        fill-rule: evenodd;
      }
    </style>
  </defs>
  <path id="logo" class="cls-1" d="M153.417,2538.08H139.975v33.61h13.442c9.264,0,16.321-7.3,16.321-16.8S162.681,2538.08,153.417,2538.08Zm0,26.21h-5.761v-18.81h5.761c5.28,0,8.928,3.64,8.928,9.41S158.7,2564.29,153.417,2564.29Zm28.8,0v-5.95h12v-7.3h-12v-5.56h13.2v-7.4H174.535v33.61h21.122v-7.4H182.216Zm26.3,7.4h9.792l10.945-33.61h-8.4l-7.441,24.73-7.441-24.73h-8.4Zm24.094-33.61v33.61H240.3v-33.61h-7.681Zm29.954,34.28a16.648,16.648,0,0,0,14.4-7.78l-6.625-3.84a8.637,8.637,0,0,1-7.776,4.13c-5.953,0-9.793-3.98-9.793-9.98s3.84-9.99,9.793-9.99a8.692,8.692,0,0,1,7.776,4.13l6.625-3.84a16.767,16.767,0,0,0-14.4-7.78A17.475,17.475,0,0,0,262.568,2572.36Zm26.159-8.07v-5.95h12v-7.3h-12v-5.56h13.2v-7.4H281.046v33.61h21.122v-7.4H288.727Z" transform="translate(-139.969 -2537.41)"/>
</svg>
